<svg xmlns="http://www.w3.org/2000/svg" width="256" height="256" viewBox="0 0 512 512" fill="none">
  <!-- Fish body -->
  <path d="M120 256l40-60c20-30 50-48 88-48h52c38 0 68 30 68 68v80c0 38-30 68-68 68h-52c-38 0-68-18-88-48l-40-60z"
        fill="#0EA5E9"/>
  <!-- Tail -->
  <path d="M120 256l-52-72c-4-6 0-14 8-12l44 24v120l-44 24c-8 2-12-6-8-12l52-72z"
        fill="#0EA5E9" opacity="0.8"/>
  <!-- Eye -->
  <circle cx="328" cy="244" r="18" fill="white"/>
  <circle cx="332" cy="242" r="10" fill="#1D1D1F"/>
  <circle cx="336" cy="238" r="3" fill="white"/>
  <!-- Gill -->
  <path d="M260 212c-8 20-8 68 0 88" stroke="white" stroke-width="3" stroke-linecap="round" opacity="0.4"/>
  <!-- Signal waves -->
  <path d="M388 220c12-8 20-4 20 12" stroke="#0EA5E9" stroke-width="5" stroke-linecap="round" fill="none" opacity="0.5"/>
  <path d="M396 204c16-10 28-4 28 20" stroke="#0EA5E9" stroke-width="5" stroke-linecap="round" fill="none" opacity="0.35"/>
  <path d="M404 188c20-12 36-4 36 28" stroke="#0EA5E9" stroke-width="5" stroke-linecap="round" fill="none" opacity="0.2"/>
  <!-- Data nodes -->
  <circle cx="164" cy="216" r="5" fill="white" opacity="0.6"/>
  <circle cx="180" cy="240" r="4" fill="white" opacity="0.4"/>
  <circle cx="172" cy="268" r="5" fill="white" opacity="0.5"/>
</svg>
